<?xml version="1.0" encoding="UTF-8"?>
<svg xmlns="http://www.w3.org/2000/svg" xmlns:xlink="http://www.w3.org/1999/xlink" width="200px" height="199px" viewBox="0 0 199 199" version="1.1">
<g id="surface1">
<path style=" stroke:none;fill-rule:nonzero;fill:rgb(67.45098%,39.607843%,90.588235%);fill-opacity:1;" d="M 18.476562 15.644531 C 17.542969 16.582031 18.046875 17.882812 21.855469 24.585938 C 24.585938 29.34375 26.167969 31.4375 27.246094 31.582031 C 29.621094 31.941406 29.117188 30.28125 24.730469 22.351562 C 20.992188 15.71875 19.699219 14.347656 18.476562 15.644531 Z M 18.476562 15.644531 "/>
<path style=" stroke:none;fill-rule:nonzero;fill:rgb(67.45098%,39.607843%,90.588235%);fill-opacity:1;" d="M 24.011719 16.152344 C 23.507812 17.375 30.769531 31.003906 32.207031 31.582031 C 32.710938 31.726562 33.503906 31.582031 33.933594 31.148438 C 34.4375 30.644531 33.429688 28.191406 30.484375 23 C 26.242188 15.574219 24.804688 14.058594 24.011719 16.152344 Z M 24.011719 16.152344 "/>
<path style=" stroke:none;fill-rule:nonzero;fill:rgb(67.45098%,39.607843%,90.588235%);fill-opacity:1;" d="M 29.621094 16.007812 C 29.117188 16.65625 30.125 19.035156 33 24.152344 C 36.738281 30.789062 39.542969 33.527344 39.542969 30.714844 C 39.542969 29.273438 31.703125 15.140625 30.914062 15.140625 C 30.625 15.140625 30.050781 15.574219 29.621094 16.007812 Z M 29.621094 16.007812 "/>
<path style=" stroke:none;fill-rule:nonzero;fill:rgb(67.45098%,39.607843%,90.588235%);fill-opacity:1;" d="M 35.371094 16.078125 C 34.796875 16.726562 35.660156 18.820312 38.460938 23.722656 C 42.921875 31.582031 43.566406 32.300781 44.644531 31.21875 C 45.222656 30.644531 44.359375 28.480469 41.339844 23.144531 C 39.109375 19.105469 36.953125 15.71875 36.664062 15.5 C 36.378906 15.285156 35.804688 15.574219 35.371094 16.078125 Z M 35.371094 16.078125 "/>
<path style=" stroke:none;fill-rule:nonzero;fill:rgb(67.45098%,39.607843%,90.588235%);fill-opacity:1;" d="M 40.261719 16.367188 C 40.261719 17.160156 48.167969 30.929688 48.886719 31.363281 C 49.320312 31.652344 49.820312 31.363281 50.039062 30.789062 C 50.613281 29.199219 43.0625 15.933594 41.554688 15.863281 C 40.835938 15.863281 40.261719 16.078125 40.261719 16.367188 Z M 40.261719 16.367188 "/>
<path style=" stroke:none;fill-rule:nonzero;fill:rgb(67.45098%,39.607843%,90.588235%);fill-opacity:1;" d="M 46.011719 16.511719 C 46.011719 17.953125 54.136719 31.003906 55.070312 31.003906 C 55.644531 31.003906 56.078125 30.789062 56.078125 30.570312 C 56.078125 29.273438 47.808594 15.863281 47.019531 15.863281 C 46.441406 15.863281 46.011719 16.152344 46.011719 16.511719 Z M 46.011719 16.511719 "/>
<path style=" stroke:none;fill-rule:nonzero;fill:rgb(67.45098%,39.607843%,90.588235%);fill-opacity:1;" d="M 51.761719 16.4375 C 51.761719 17.664062 59.382812 30.570312 60.316406 30.859375 C 61.828125 31.363281 61.039062 29.199219 57.296875 22.785156 C 53.917969 16.945312 51.761719 14.492188 51.761719 16.4375 Z M 51.761719 16.4375 "/>
<path style=" stroke:none;fill-rule:nonzero;fill:rgb(67.45098%,39.607843%,90.588235%);fill-opacity:1;" d="M 17.542969 34.105469 C 17.398438 34.609375 20.347656 40.664062 24.15625 47.585938 C 27.964844 54.507812 34.722656 66.839844 39.183594 74.984375 C 79.011719 147.808594 94.46875 175.710938 95.257812 176.578125 C 95.761719 177.082031 96.480469 177.371094 96.910156 177.082031 C 97.269531 176.863281 101.65625 169.292969 106.617188 160.28125 C 157.300781 67.992188 175.203125 34.96875 174.914062 34.105469 C 174.339844 32.734375 18.117188 32.734375 17.542969 34.105469 Z M 161.113281 53.210938 C 156.152344 62.296875 139.617188 92.433594 124.375 120.265625 C 109.132812 148.097656 96.550781 170.878906 96.335938 170.878906 C 95.976562 170.878906 78.867188 139.875 34.292969 58.402344 C 29.1875 49.101562 24.371094 40.375 23.582031 39.078125 L 22.144531 36.773438 L 170.242188 36.773438 Z M 161.113281 53.210938 "/>
<path style=" stroke:none;fill-rule:nonzero;fill:rgb(67.45098%,39.607843%,90.588235%);fill-opacity:1;" d="M 32.351562 43.261719 C 32.351562 44.414062 47.59375 72.101562 48.242188 72.101562 C 50.039062 72.101562 49.03125 69.503906 43.0625 58.617188 C 39.46875 51.984375 36.164062 46.074219 35.730469 45.566406 C 35.226562 44.917969 38.679688 44.703125 52.769531 44.703125 C 68.011719 44.703125 70.457031 44.558594 70.457031 43.621094 C 70.457031 42.683594 67.867188 42.539062 51.402344 42.539062 C 39.109375 42.539062 32.351562 42.828125 32.351562 43.261719 Z M 32.351562 43.261719 "/>
<path style=" stroke:none;fill-rule:nonzero;fill:rgb(67.45098%,39.607843%,90.588235%);fill-opacity:1;" d="M 95.402344 43.042969 C 95.113281 43.261719 94.898438 43.765625 94.898438 44.125 C 94.898438 44.414062 109.636719 44.703125 127.609375 44.703125 C 156.222656 44.703125 160.320312 44.558594 160.320312 43.621094 C 160.320312 42.683594 156.296875 42.539062 128.113281 42.539062 C 110.355469 42.539062 95.617188 42.757812 95.402344 43.042969 Z M 95.402344 43.042969 "/>
<path style=" stroke:none;fill-rule:nonzero;fill:rgb(67.45098%,39.607843%,90.588235%);fill-opacity:1;" d="M 97.558594 52.34375 C 96.550781 53.425781 97.128906 54.796875 98.566406 54.796875 C 99.570312 54.796875 99.929688 54.4375 99.789062 53.570312 C 99.570312 52.273438 98.351562 51.625 97.558594 52.34375 Z M 97.558594 52.34375 "/>
<path style=" stroke:none;fill-rule:nonzero;fill:rgb(67.45098%,39.607843%,90.588235%);fill-opacity:1;" d="M 53.917969 54.074219 C 53.917969 55.011719 54.421875 55.519531 55.359375 55.519531 C 56.292969 55.519531 56.796875 55.011719 56.796875 54.074219 C 56.796875 53.140625 56.292969 52.632812 55.359375 52.632812 C 54.421875 52.632812 53.917969 53.140625 53.917969 54.074219 Z M 53.917969 54.074219 "/>
<path style=" stroke:none;fill-rule:nonzero;fill:rgb(67.45098%,39.607843%,90.588235%);fill-opacity:1;" d="M 62.546875 54.148438 C 62.546875 55.949219 64.917969 55.734375 65.277344 53.859375 C 65.421875 52.996094 65.0625 52.632812 64.058594 52.632812 C 62.976562 52.632812 62.546875 53.066406 62.546875 54.148438 Z M 62.546875 54.148438 "/>
<path style=" stroke:none;fill-rule:nonzero;fill:rgb(67.45098%,39.607843%,90.588235%);fill-opacity:1;" d="M 71.316406 53.859375 C 71.460938 54.582031 72.035156 55.15625 72.613281 55.15625 C 73.1875 55.15625 73.761719 54.582031 73.90625 53.859375 C 74.050781 52.996094 73.691406 52.632812 72.613281 52.632812 C 71.535156 52.632812 71.175781 52.996094 71.316406 53.859375 Z M 71.316406 53.859375 "/>
<path style=" stroke:none;fill-rule:nonzero;fill:rgb(67.45098%,39.607843%,90.588235%);fill-opacity:1;" d="M 79.945312 53.859375 C 80.089844 54.582031 80.664062 55.15625 81.238281 55.15625 C 81.8125 55.15625 82.390625 54.582031 82.535156 53.859375 C 82.675781 52.996094 82.316406 52.632812 81.238281 52.632812 C 80.160156 52.632812 79.800781 52.996094 79.945312 53.859375 Z M 79.945312 53.859375 "/>
<path style=" stroke:none;fill-rule:nonzero;fill:rgb(67.45098%,39.607843%,90.588235%);fill-opacity:1;" d="M 88.429688 53.714844 C 88.429688 54.292969 89.074219 54.796875 89.867188 54.796875 C 90.65625 54.796875 91.304688 54.292969 91.304688 53.714844 C 91.304688 53.140625 90.65625 52.632812 89.867188 52.632812 C 89.074219 52.632812 88.429688 53.140625 88.429688 53.714844 Z M 88.429688 53.714844 "/>
<path style=" stroke:none;fill-rule:nonzero;fill:rgb(67.45098%,39.607843%,90.588235%);fill-opacity:1;" d="M 60.894531 69.074219 C 60.316406 69.9375 95.1875 133.027344 96.265625 133.027344 C 96.769531 133.027344 99.140625 129.421875 101.585938 125.097656 C 122.003906 88.179688 132.066406 69.503906 131.78125 69 C 131.347656 68.351562 61.324219 68.351562 60.894531 69.074219 Z M 96.839844 70.949219 C 96.839844 71.378906 96.984375 72.246094 97.128906 72.824219 C 97.34375 73.472656 96.769531 73.976562 95.832031 74.121094 C 94.609375 74.335938 94.324219 74.121094 94.609375 73.253906 C 94.828125 72.605469 95.402344 72.316406 95.90625 72.605469 C 96.335938 72.824219 96.335938 72.679688 95.832031 72.03125 C 94.609375 70.804688 94.683594 70.15625 95.832031 70.15625 C 96.410156 70.15625 96.839844 70.515625 96.839844 70.949219 Z M 94.035156 71.234375 C 93.03125 73.542969 79.371094 97.984375 79.082031 97.984375 C 78.792969 97.984375 65.207031 73.617188 64.128906 71.164062 C 63.984375 70.875 70.742188 70.660156 79.082031 70.660156 C 87.421875 70.660156 94.179688 70.875 94.035156 71.234375 Z M 125.453125 76.570312 C 123.65625 79.886719 120.347656 86.015625 118.046875 90.269531 C 115.820312 94.523438 113.808594 98.058594 113.589844 98.058594 C 113.304688 98.058594 99.429688 73.253906 98.636719 71.234375 C 98.492188 70.949219 105.179688 70.660156 113.519531 70.660156 L 128.6875 70.660156 Z M 98.851562 74.984375 C 99.070312 75.417969 98.78125 75.488281 98.207031 75.273438 C 97.558594 75.058594 97.054688 75.128906 97.054688 75.417969 C 97.128906 77.003906 108.558594 96.976562 109.421875 96.976562 C 110.714844 96.976562 113.878906 99.933594 113.085938 100.363281 C 112.800781 100.507812 111.433594 100.292969 110.066406 99.859375 C 108.488281 99.285156 107.984375 98.851562 108.628906 98.5625 C 109.207031 98.347656 103.527344 98.203125 95.976562 98.203125 C 88.070312 98.203125 83.109375 98.417969 84.113281 98.777344 C 85.121094 99.066406 85.410156 99.429688 84.832031 99.5 C 83.683594 99.644531 82.171875 99.933594 80.59375 100.292969 C 80.089844 100.4375 79.441406 100.148438 79.296875 99.644531 C 79.082031 99.210938 79.441406 98.777344 80.089844 98.777344 C 80.734375 98.777344 81.238281 98.417969 81.238281 98.058594 C 81.238281 97.625 81.8125 97.335938 82.535156 97.335938 C 83.46875 97.335938 85.554688 94.238281 89.867188 86.304688 C 96.410156 74.335938 97.558594 72.894531 98.851562 74.984375 Z M 111.433594 102.023438 C 111.433594 102.238281 109.207031 106.421875 106.546875 111.253906 C 103.8125 116.082031 100.363281 122.285156 98.925781 124.953125 L 96.191406 129.855469 L 94.753906 127.113281 C 91.589844 121.058594 83.753906 106.925781 82.171875 104.332031 L 80.519531 101.664062 L 95.976562 101.664062 C 104.460938 101.664062 111.433594 101.808594 111.433594 102.023438 Z M 111.433594 102.023438 "/>
<path style=" stroke:none;fill-rule:nonzero;fill:rgb(67.45098%,39.607843%,90.588235%);fill-opacity:1;" d="M 63.984375 100.726562 C 64.058594 102.671875 95.1875 158.984375 96.265625 158.984375 C 97.269531 158.984375 128.6875 102.3125 128.6875 100.507812 C 128.6875 99.859375 128.257812 99.5 127.824219 99.644531 C 126.964844 99.933594 122.648438 107.574219 103.238281 142.976562 L 96.191406 155.8125 L 93.820312 151.269531 C 85.695312 135.765625 65.566406 99.933594 64.847656 99.644531 C 64.34375 99.5 63.984375 100.003906 63.984375 100.726562 Z M 63.984375 100.726562 "/>
<path style=" stroke:none;fill-rule:nonzero;fill:rgb(67.45098%,39.607843%,90.588235%);fill-opacity:1;" d="M 164.996094 69.722656 C 153.203125 89.910156 142.996094 107.144531 142.277344 108.222656 C 141.414062 109.449219 141.199219 110.386719 141.703125 111.109375 C 142.636719 112.476562 143.140625 111.828125 150.902344 98.417969 C 154.355469 92.433594 164.203125 75.707031 172.757812 61.140625 C 181.386719 46.578125 188.359375 34.320312 188.359375 33.886719 C 188.359375 30.644531 183.613281 37.925781 164.996094 69.722656 Z M 164.996094 69.722656 "/>
<path style=" stroke:none;fill-rule:nonzero;fill:rgb(67.45098%,39.607843%,90.588235%);fill-opacity:1;" d="M 172.183594 72.390625 C 170.601562 74.769531 171.464844 76.285156 173.335938 74.554688 C 174.84375 73.183594 175.132812 71.742188 173.980469 71.019531 C 173.621094 70.804688 172.832031 71.453125 172.183594 72.390625 Z M 172.183594 72.390625 "/>
<path style=" stroke:none;fill-rule:nonzero;fill:rgb(67.45098%,39.607843%,90.588235%);fill-opacity:1;" d="M 167.4375 80.105469 C 166.289062 82.339844 167.796875 83.710938 169.308594 81.761719 C 169.882812 81.042969 170.386719 79.960938 170.386719 79.457031 C 170.386719 78.015625 168.375 78.445312 167.4375 80.105469 Z M 167.4375 80.105469 "/>
<path style=" stroke:none;fill-rule:nonzero;fill:rgb(67.45098%,39.607843%,90.588235%);fill-opacity:1;" d="M 163.195312 87.171875 C 162.191406 89.117188 162.261719 90.125 163.558594 90.125 C 164.777344 90.125 166.359375 87.53125 165.714844 86.523438 C 164.996094 85.367188 164.058594 85.65625 163.195312 87.171875 Z M 163.195312 87.171875 "/>
<path style=" stroke:none;fill-rule:nonzero;fill:rgb(67.45098%,39.607843%,90.588235%);fill-opacity:1;" d="M 158.882812 94.8125 C 158.164062 96.109375 158.09375 96.832031 158.667969 97.410156 C 159.601562 98.347656 162.191406 94.957031 161.398438 93.730469 C 160.679688 92.578125 159.890625 92.867188 158.882812 94.8125 Z M 158.882812 94.8125 "/>
<path style=" stroke:none;fill-rule:nonzero;fill:rgb(67.45098%,39.607843%,90.588235%);fill-opacity:1;" d="M 154.570312 102.023438 C 154.066406 102.601562 153.921875 103.683594 154.210938 104.332031 C 154.640625 105.484375 154.785156 105.484375 156.078125 103.898438 C 156.796875 102.960938 157.445312 101.953125 157.445312 101.589844 C 157.445312 100.582031 155.578125 100.871094 154.570312 102.023438 Z M 154.570312 102.023438 "/>
<path style=" stroke:none;fill-rule:nonzero;fill:rgb(67.45098%,39.607843%,90.588235%);fill-opacity:1;" d="M 45.292969 104.761719 C 45.292969 106.132812 95.1875 197.054688 96.121094 197.339844 C 96.769531 197.558594 115.605469 164.320312 115.746094 162.589844 C 115.820312 162.226562 115.53125 161.796875 115.171875 161.652344 C 114.8125 161.578125 110.355469 168.933594 105.324219 178.089844 L 96.191406 194.746094 L 94.394531 191.285156 C 93.390625 189.410156 83.613281 171.601562 72.753906 151.773438 C 61.898438 131.945312 51.546875 113.054688 49.820312 109.738281 C 46.800781 104.1875 45.292969 102.527344 45.292969 104.761719 Z M 45.292969 104.761719 "/>
<path style=" stroke:none;fill-rule:nonzero;fill:rgb(67.45098%,39.607843%,90.588235%);fill-opacity:1;" d="M 150.257812 109.523438 C 149.25 111.398438 149.320312 112.476562 150.472656 112.476562 C 151.621094 112.476562 153.347656 109.738281 152.773438 108.875 C 152.054688 107.71875 151.121094 108.007812 150.257812 109.523438 Z M 150.257812 109.523438 "/>
<path style=" stroke:none;fill-rule:nonzero;fill:rgb(67.45098%,39.607843%,90.588235%);fill-opacity:1;" d="M 145.941406 116.730469 C 144.9375 118.605469 145.007812 119.6875 146.160156 119.6875 C 147.308594 119.6875 149.035156 116.949219 148.460938 116.082031 C 147.742188 114.929688 146.804688 115.21875 145.941406 116.730469 Z M 145.941406 116.730469 "/>
<path style=" stroke:none;fill-rule:nonzero;fill:rgb(67.45098%,39.607843%,90.588235%);fill-opacity:1;" d="M 141.269531 124.808594 C 140.480469 127.113281 141.988281 128.050781 143.28125 126.105469 C 143.929688 125.238281 144.289062 124.230469 144.074219 123.871094 C 143.355469 122.789062 141.703125 123.292969 141.269531 124.808594 Z M 141.269531 124.808594 "/>
<path style=" stroke:none;fill-rule:nonzero;fill:rgb(67.45098%,39.607843%,90.588235%);fill-opacity:1;" d="M 137.460938 131.367188 C 136.453125 132.378906 136.308594 134.828125 137.242188 134.828125 C 137.675781 134.828125 138.464844 134.109375 139.042969 133.242188 C 140.621094 131.007812 139.328125 129.496094 137.460938 131.367188 Z M 137.460938 131.367188 "/>
<path style=" stroke:none;fill-rule:nonzero;fill:rgb(67.45098%,39.607843%,90.588235%);fill-opacity:1;" d="M 132.714844 139.300781 C 131.5625 140.957031 131.78125 142.039062 133.289062 142.039062 C 134.296875 142.039062 136.023438 138.796875 135.375 138.144531 C 134.582031 137.351562 133.792969 137.714844 132.714844 139.300781 Z M 132.714844 139.300781 "/>
<path style=" stroke:none;fill-rule:nonzero;fill:rgb(67.45098%,39.607843%,90.588235%);fill-opacity:1;" d="M 128.472656 146.65625 C 127.464844 148.167969 127.464844 148.527344 128.328125 149.25 C 129.191406 149.972656 129.550781 149.753906 130.199219 148.242188 C 131.492188 145.5 130.054688 144.203125 128.472656 146.65625 Z M 128.472656 146.65625 "/>
</g>
</svg>
