<?xml version="1.0" encoding="UTF-8"?>
<svg xmlns="http://www.w3.org/2000/svg" xmlns:xlink="http://www.w3.org/1999/xlink" width="20px" height="20px" viewBox="0 0 20 19" version="1.1">
<g id="surface1">
<path style=" stroke:none;fill-rule:nonzero;fill:rgb(67.45098%,39.607843%,90.588235%);fill-opacity:1;" d="M 1.898438 1.492188 C 1.804688 1.582031 1.855469 1.707031 2.234375 2.347656 C 2.507812 2.800781 2.667969 3 2.773438 3.015625 C 3.011719 3.050781 2.960938 2.890625 2.523438 2.132812 C 2.148438 1.5 2.019531 1.371094 1.898438 1.492188 Z M 1.898438 1.492188 "/>
<path style=" stroke:none;fill-rule:nonzero;fill:rgb(67.45098%,39.607843%,90.588235%);fill-opacity:1;" d="M 2.453125 1.542969 C 2.402344 1.660156 3.125 2.960938 3.269531 3.015625 C 3.320312 3.027344 3.398438 3.015625 3.445312 2.972656 C 3.492188 2.925781 3.394531 2.691406 3.097656 2.195312 C 2.675781 1.488281 2.53125 1.34375 2.453125 1.542969 Z M 2.453125 1.542969 "/>
<path style=" stroke:none;fill-rule:nonzero;fill:rgb(67.45098%,39.607843%,90.588235%);fill-opacity:1;" d="M 3.011719 1.527344 C 2.960938 1.589844 3.0625 1.816406 3.351562 2.304688 C 3.722656 2.941406 4.003906 3.199219 4.003906 2.933594 C 4.003906 2.796875 3.21875 1.445312 3.140625 1.445312 C 3.113281 1.445312 3.054688 1.488281 3.011719 1.527344 Z M 3.011719 1.527344 "/>
<path style=" stroke:none;fill-rule:nonzero;fill:rgb(67.45098%,39.607843%,90.588235%);fill-opacity:1;" d="M 3.585938 1.535156 C 3.53125 1.597656 3.617188 1.796875 3.894531 2.265625 C 4.34375 3.015625 4.40625 3.085938 4.515625 2.980469 C 4.570312 2.925781 4.484375 2.71875 4.183594 2.210938 C 3.960938 1.824219 3.746094 1.5 3.714844 1.480469 C 3.6875 1.460938 3.628906 1.488281 3.585938 1.535156 Z M 3.585938 1.535156 "/>
<path style=" stroke:none;fill-rule:nonzero;fill:rgb(67.45098%,39.607843%,90.588235%);fill-opacity:1;" d="M 4.078125 1.5625 C 4.078125 1.636719 4.867188 2.953125 4.9375 2.996094 C 4.980469 3.023438 5.03125 2.996094 5.054688 2.941406 C 5.109375 2.789062 4.355469 1.519531 4.207031 1.515625 C 4.132812 1.515625 4.078125 1.535156 4.078125 1.5625 Z M 4.078125 1.5625 "/>
<path style=" stroke:none;fill-rule:nonzero;fill:rgb(67.45098%,39.607843%,90.588235%);fill-opacity:1;" d="M 4.652344 1.578125 C 4.652344 1.714844 5.464844 2.960938 5.558594 2.960938 C 5.613281 2.960938 5.65625 2.941406 5.65625 2.917969 C 5.65625 2.796875 4.832031 1.515625 4.75 1.515625 C 4.695312 1.515625 4.652344 1.542969 4.652344 1.578125 Z M 4.652344 1.578125 "/>
<path style=" stroke:none;fill-rule:nonzero;fill:rgb(67.45098%,39.607843%,90.588235%);fill-opacity:1;" d="M 5.226562 1.570312 C 5.226562 1.6875 5.988281 2.917969 6.082031 2.945312 C 6.234375 2.996094 6.152344 2.789062 5.78125 2.175781 C 5.441406 1.617188 5.226562 1.382812 5.226562 1.570312 Z M 5.226562 1.570312 "/>
<path style=" stroke:none;fill-rule:nonzero;fill:rgb(67.45098%,39.607843%,90.588235%);fill-opacity:1;" d="M 1.804688 3.257812 C 1.789062 3.304688 2.085938 3.882812 2.464844 4.542969 C 2.847656 5.203125 3.523438 6.382812 3.96875 7.160156 C 7.953125 14.113281 9.496094 16.777344 9.574219 16.859375 C 9.625 16.90625 9.699219 16.933594 9.742188 16.90625 C 9.777344 16.886719 10.214844 16.164062 10.710938 15.304688 C 15.78125 6.492188 17.570312 3.339844 17.542969 3.257812 C 17.484375 3.125 1.863281 3.125 1.804688 3.257812 Z M 16.160156 5.082031 C 15.664062 5.949219 14.011719 8.824219 12.488281 11.484375 C 10.964844 14.140625 9.703125 16.316406 9.683594 16.316406 C 9.648438 16.316406 7.9375 13.355469 3.480469 5.574219 C 2.96875 4.6875 2.488281 3.855469 2.40625 3.730469 L 2.265625 3.511719 L 17.074219 3.511719 Z M 16.160156 5.082031 "/>
<path style=" stroke:none;fill-rule:nonzero;fill:rgb(67.45098%,39.607843%,90.588235%);fill-opacity:1;" d="M 3.285156 4.128906 C 3.285156 4.242188 4.808594 6.882812 4.875 6.882812 C 5.054688 6.882812 4.953125 6.636719 4.355469 5.597656 C 3.996094 4.964844 3.667969 4.398438 3.625 4.351562 C 3.574219 4.289062 3.917969 4.269531 5.328125 4.269531 C 6.851562 4.269531 7.09375 4.253906 7.09375 4.164062 C 7.09375 4.074219 6.835938 4.0625 5.191406 4.0625 C 3.960938 4.0625 3.285156 4.089844 3.285156 4.128906 Z M 3.285156 4.128906 "/>
<path style=" stroke:none;fill-rule:nonzero;fill:rgb(67.45098%,39.607843%,90.588235%);fill-opacity:1;" d="M 9.589844 4.109375 C 9.5625 4.128906 9.539062 4.179688 9.539062 4.214844 C 9.539062 4.242188 11.015625 4.269531 12.8125 4.269531 C 15.671875 4.269531 16.082031 4.253906 16.082031 4.164062 C 16.082031 4.074219 15.679688 4.0625 12.859375 4.0625 C 11.085938 4.0625 9.613281 4.082031 9.589844 4.109375 Z M 9.589844 4.109375 "/>
<path style=" stroke:none;fill-rule:nonzero;fill:rgb(67.45098%,39.607843%,90.588235%);fill-opacity:1;" d="M 9.804688 4.996094 C 9.703125 5.101562 9.761719 5.230469 9.90625 5.230469 C 10.007812 5.230469 10.042969 5.199219 10.027344 5.113281 C 10.007812 4.992188 9.886719 4.929688 9.804688 4.996094 Z M 9.804688 4.996094 "/>
<path style=" stroke:none;fill-rule:nonzero;fill:rgb(67.45098%,39.607843%,90.588235%);fill-opacity:1;" d="M 5.441406 5.164062 C 5.441406 5.253906 5.492188 5.300781 5.585938 5.300781 C 5.679688 5.300781 5.730469 5.253906 5.730469 5.164062 C 5.730469 5.074219 5.679688 5.023438 5.585938 5.023438 C 5.492188 5.023438 5.441406 5.074219 5.441406 5.164062 Z M 5.441406 5.164062 "/>
<path style=" stroke:none;fill-rule:nonzero;fill:rgb(67.45098%,39.607843%,90.588235%);fill-opacity:1;" d="M 6.304688 5.171875 C 6.304688 5.34375 6.542969 5.320312 6.578125 5.140625 C 6.59375 5.058594 6.554688 5.023438 6.457031 5.023438 C 6.347656 5.023438 6.304688 5.066406 6.304688 5.171875 Z M 6.304688 5.171875 "/>
<path style=" stroke:none;fill-rule:nonzero;fill:rgb(67.45098%,39.607843%,90.588235%);fill-opacity:1;" d="M 7.179688 5.140625 C 7.195312 5.210938 7.253906 5.265625 7.3125 5.265625 C 7.367188 5.265625 7.425781 5.210938 7.441406 5.140625 C 7.453125 5.058594 7.417969 5.023438 7.3125 5.023438 C 7.203125 5.023438 7.167969 5.058594 7.179688 5.140625 Z M 7.179688 5.140625 "/>
<path style=" stroke:none;fill-rule:nonzero;fill:rgb(67.45098%,39.607843%,90.588235%);fill-opacity:1;" d="M 8.042969 5.140625 C 8.058594 5.210938 8.117188 5.265625 8.171875 5.265625 C 8.230469 5.265625 8.289062 5.210938 8.304688 5.140625 C 8.316406 5.058594 8.28125 5.023438 8.171875 5.023438 C 8.066406 5.023438 8.03125 5.058594 8.042969 5.140625 Z M 8.042969 5.140625 "/>
<path style=" stroke:none;fill-rule:nonzero;fill:rgb(67.45098%,39.607843%,90.588235%);fill-opacity:1;" d="M 8.894531 5.128906 C 8.894531 5.183594 8.957031 5.230469 9.035156 5.230469 C 9.117188 5.230469 9.179688 5.183594 9.179688 5.128906 C 9.179688 5.074219 9.117188 5.023438 9.035156 5.023438 C 8.957031 5.023438 8.894531 5.074219 8.894531 5.128906 Z M 8.894531 5.128906 "/>
<path style=" stroke:none;fill-rule:nonzero;fill:rgb(67.45098%,39.607843%,90.588235%);fill-opacity:1;" d="M 6.140625 6.59375 C 6.082031 6.675781 9.570312 12.699219 9.675781 12.699219 C 9.726562 12.699219 9.964844 12.355469 10.207031 11.945312 C 12.25 8.417969 13.257812 6.636719 13.226562 6.589844 C 13.183594 6.527344 6.183594 6.527344 6.140625 6.59375 Z M 9.734375 6.773438 C 9.734375 6.816406 9.75 6.898438 9.761719 6.953125 C 9.785156 7.015625 9.726562 7.0625 9.632812 7.078125 C 9.511719 7.097656 9.484375 7.078125 9.511719 6.992188 C 9.53125 6.933594 9.589844 6.90625 9.640625 6.933594 C 9.683594 6.953125 9.683594 6.9375 9.632812 6.878906 C 9.511719 6.761719 9.519531 6.699219 9.632812 6.699219 C 9.691406 6.699219 9.734375 6.734375 9.734375 6.773438 Z M 9.453125 6.800781 C 9.351562 7.023438 7.988281 9.355469 7.957031 9.355469 C 7.929688 9.355469 6.570312 7.027344 6.460938 6.792969 C 6.449219 6.765625 7.125 6.746094 7.957031 6.746094 C 8.792969 6.746094 9.46875 6.765625 9.453125 6.800781 Z M 12.59375 7.3125 C 12.414062 7.628906 12.085938 8.210938 11.855469 8.617188 C 11.632812 9.023438 11.429688 9.363281 11.410156 9.363281 C 11.378906 9.363281 9.992188 6.992188 9.914062 6.800781 C 9.898438 6.773438 10.566406 6.746094 11.402344 6.746094 L 12.917969 6.746094 Z M 9.933594 7.160156 C 9.957031 7.199219 9.929688 7.207031 9.871094 7.1875 C 9.804688 7.167969 9.753906 7.171875 9.753906 7.199219 C 9.761719 7.351562 10.90625 9.257812 10.992188 9.257812 C 11.121094 9.257812 11.4375 9.542969 11.359375 9.582031 C 11.328125 9.597656 11.195312 9.574219 11.054688 9.535156 C 10.898438 9.480469 10.847656 9.4375 10.914062 9.410156 C 10.96875 9.390625 10.402344 9.375 9.648438 9.375 C 8.855469 9.375 8.359375 9.398438 8.460938 9.429688 C 8.5625 9.457031 8.589844 9.492188 8.53125 9.5 C 8.417969 9.515625 8.265625 9.542969 8.109375 9.574219 C 8.058594 9.589844 7.992188 9.5625 7.980469 9.515625 C 7.957031 9.472656 7.992188 9.429688 8.058594 9.429688 C 8.125 9.429688 8.171875 9.398438 8.171875 9.363281 C 8.171875 9.320312 8.230469 9.292969 8.304688 9.292969 C 8.398438 9.292969 8.605469 8.996094 9.035156 8.238281 C 9.691406 7.097656 9.804688 6.960938 9.933594 7.160156 Z M 11.195312 9.742188 C 11.195312 9.761719 10.96875 10.160156 10.703125 10.621094 C 10.429688 11.082031 10.085938 11.675781 9.941406 11.929688 L 9.667969 12.398438 L 9.523438 12.136719 C 9.210938 11.558594 8.425781 10.210938 8.265625 9.960938 L 8.101562 9.707031 L 9.648438 9.707031 C 10.496094 9.707031 11.195312 9.71875 11.195312 9.742188 Z M 11.195312 9.742188 "/>
<path style=" stroke:none;fill-rule:nonzero;fill:rgb(67.45098%,39.607843%,90.588235%);fill-opacity:1;" d="M 6.449219 9.617188 C 6.457031 9.804688 9.570312 15.179688 9.675781 15.179688 C 9.777344 15.179688 12.917969 9.769531 12.917969 9.597656 C 12.917969 9.535156 12.875 9.5 12.832031 9.515625 C 12.746094 9.542969 12.316406 10.269531 10.375 13.652344 L 9.667969 14.875 L 9.433594 14.441406 C 8.621094 12.960938 6.605469 9.542969 6.535156 9.515625 C 6.484375 9.5 6.449219 9.546875 6.449219 9.617188 Z M 6.449219 9.617188 "/>
<path style=" stroke:none;fill-rule:nonzero;fill:rgb(67.45098%,39.607843%,90.588235%);fill-opacity:1;" d="M 16.550781 6.65625 C 15.371094 8.585938 14.351562 10.230469 14.277344 10.332031 C 14.191406 10.449219 14.171875 10.539062 14.21875 10.609375 C 14.3125 10.738281 14.363281 10.675781 15.140625 9.398438 C 15.484375 8.824219 16.46875 7.226562 17.324219 5.835938 C 18.1875 4.445312 18.886719 3.277344 18.886719 3.234375 C 18.886719 2.925781 18.410156 3.621094 16.550781 6.65625 Z M 16.550781 6.65625 "/>
<path style=" stroke:none;fill-rule:nonzero;fill:rgb(67.45098%,39.607843%,90.588235%);fill-opacity:1;" d="M 17.269531 6.910156 C 17.109375 7.140625 17.195312 7.285156 17.382812 7.117188 C 17.535156 6.988281 17.5625 6.851562 17.449219 6.78125 C 17.414062 6.761719 17.332031 6.820312 17.269531 6.910156 Z M 17.269531 6.910156 "/>
<path style=" stroke:none;fill-rule:nonzero;fill:rgb(67.45098%,39.607843%,90.588235%);fill-opacity:1;" d="M 16.792969 7.648438 C 16.679688 7.863281 16.828125 7.992188 16.980469 7.804688 C 17.039062 7.738281 17.089844 7.632812 17.089844 7.585938 C 17.089844 7.449219 16.886719 7.488281 16.792969 7.648438 Z M 16.792969 7.648438 "/>
<path style=" stroke:none;fill-rule:nonzero;fill:rgb(67.45098%,39.607843%,90.588235%);fill-opacity:1;" d="M 16.371094 8.324219 C 16.269531 8.507812 16.277344 8.605469 16.40625 8.605469 C 16.527344 8.605469 16.6875 8.355469 16.621094 8.261719 C 16.550781 8.152344 16.457031 8.179688 16.371094 8.324219 Z M 16.371094 8.324219 "/>
<path style=" stroke:none;fill-rule:nonzero;fill:rgb(67.45098%,39.607843%,90.588235%);fill-opacity:1;" d="M 15.9375 9.050781 C 15.867188 9.175781 15.859375 9.246094 15.917969 9.300781 C 16.011719 9.390625 16.269531 9.066406 16.191406 8.949219 C 16.117188 8.839844 16.039062 8.867188 15.9375 9.050781 Z M 15.9375 9.050781 "/>
<path style=" stroke:none;fill-rule:nonzero;fill:rgb(67.45098%,39.607843%,90.588235%);fill-opacity:1;" d="M 15.507812 9.742188 C 15.457031 9.796875 15.441406 9.898438 15.472656 9.960938 C 15.515625 10.070312 15.527344 10.070312 15.65625 9.921875 C 15.730469 9.832031 15.792969 9.734375 15.792969 9.699219 C 15.792969 9.601562 15.609375 9.632812 15.507812 9.742188 Z M 15.507812 9.742188 "/>
<path style=" stroke:none;fill-rule:nonzero;fill:rgb(67.45098%,39.607843%,90.588235%);fill-opacity:1;" d="M 4.578125 10.003906 C 4.578125 10.132812 9.570312 18.8125 9.664062 18.839844 C 9.726562 18.863281 11.609375 15.6875 11.625 15.523438 C 11.632812 15.488281 11.601562 15.449219 11.566406 15.433594 C 11.53125 15.425781 11.085938 16.128906 10.582031 17.003906 L 9.667969 18.59375 L 9.488281 18.261719 C 9.390625 18.085938 8.410156 16.382812 7.324219 14.492188 C 6.238281 12.597656 5.203125 10.792969 5.03125 10.476562 C 4.730469 9.949219 4.578125 9.789062 4.578125 10.003906 Z M 4.578125 10.003906 "/>
<path style=" stroke:none;fill-rule:nonzero;fill:rgb(67.45098%,39.607843%,90.588235%);fill-opacity:1;" d="M 15.074219 10.457031 C 14.976562 10.636719 14.980469 10.738281 15.097656 10.738281 C 15.210938 10.738281 15.382812 10.476562 15.328125 10.394531 C 15.253906 10.285156 15.164062 10.3125 15.074219 10.457031 Z M 15.074219 10.457031 "/>
<path style=" stroke:none;fill-rule:nonzero;fill:rgb(67.45098%,39.607843%,90.588235%);fill-opacity:1;" d="M 14.644531 11.144531 C 14.542969 11.324219 14.550781 11.425781 14.664062 11.425781 C 14.78125 11.425781 14.953125 11.164062 14.894531 11.082031 C 14.824219 10.972656 14.730469 11 14.644531 11.144531 Z M 14.644531 11.144531 "/>
<path style=" stroke:none;fill-rule:nonzero;fill:rgb(67.45098%,39.607843%,90.588235%);fill-opacity:1;" d="M 14.175781 11.917969 C 14.097656 12.136719 14.25 12.226562 14.378906 12.039062 C 14.441406 11.957031 14.480469 11.859375 14.457031 11.828125 C 14.386719 11.722656 14.21875 11.773438 14.175781 11.917969 Z M 14.175781 11.917969 "/>
<path style=" stroke:none;fill-rule:nonzero;fill:rgb(67.45098%,39.607843%,90.588235%);fill-opacity:1;" d="M 13.796875 12.542969 C 13.695312 12.640625 13.679688 12.871094 13.773438 12.871094 C 13.816406 12.871094 13.898438 12.804688 13.953125 12.722656 C 14.113281 12.507812 13.984375 12.363281 13.796875 12.542969 Z M 13.796875 12.542969 "/>
<path style=" stroke:none;fill-rule:nonzero;fill:rgb(67.45098%,39.607843%,90.588235%);fill-opacity:1;" d="M 13.320312 13.300781 C 13.207031 13.457031 13.226562 13.5625 13.378906 13.5625 C 13.480469 13.5625 13.652344 13.253906 13.585938 13.191406 C 13.507812 13.113281 13.429688 13.148438 13.320312 13.300781 Z M 13.320312 13.300781 "/>
<path style=" stroke:none;fill-rule:nonzero;fill:rgb(67.45098%,39.607843%,90.588235%);fill-opacity:1;" d="M 12.898438 14.003906 C 12.796875 14.148438 12.796875 14.179688 12.882812 14.25 C 12.96875 14.320312 13.003906 14.296875 13.070312 14.152344 C 13.199219 13.890625 13.054688 13.769531 12.898438 14.003906 Z M 12.898438 14.003906 "/>
</g>
</svg>
