<?xml version="1.0" encoding="UTF-8"?>
<svg xmlns="http://www.w3.org/2000/svg" xmlns:xlink="http://www.w3.org/1999/xlink" width="50px" height="50px" viewBox="0 0 50 49" version="1.1">
<g id="surface1">
<path style=" stroke:none;fill-rule:nonzero;fill:rgb(67.45098%,39.607843%,90.588235%);fill-opacity:1;" d="M 4.742188 3.851562 C 4.511719 4.082031 4.636719 4.402344 5.589844 6.054688 C 6.273438 7.226562 6.667969 7.742188 6.9375 7.777344 C 7.53125 7.863281 7.40625 7.457031 6.308594 5.503906 C 5.375 3.871094 5.050781 3.53125 4.742188 3.851562 Z M 4.742188 3.851562 "/>
<path style=" stroke:none;fill-rule:nonzero;fill:rgb(67.45098%,39.607843%,90.588235%);fill-opacity:1;" d="M 6.128906 3.976562 C 6 4.277344 7.816406 7.632812 8.175781 7.777344 C 8.304688 7.8125 8.5 7.777344 8.609375 7.667969 C 8.734375 7.546875 8.484375 6.941406 7.746094 5.664062 C 6.6875 3.835938 6.328125 3.460938 6.128906 3.976562 Z M 6.128906 3.976562 "/>
<path style=" stroke:none;fill-rule:nonzero;fill:rgb(67.45098%,39.607843%,90.588235%);fill-opacity:1;" d="M 7.53125 3.941406 C 7.40625 4.101562 7.65625 4.6875 8.375 5.945312 C 9.308594 7.582031 10.011719 8.253906 10.011719 7.5625 C 10.011719 7.207031 8.050781 3.726562 7.851562 3.726562 C 7.78125 3.726562 7.636719 3.835938 7.53125 3.941406 Z M 7.53125 3.941406 "/>
<path style=" stroke:none;fill-rule:nonzero;fill:rgb(67.45098%,39.607843%,90.588235%);fill-opacity:1;" d="M 8.96875 3.957031 C 8.824219 4.117188 9.039062 4.632812 9.742188 5.839844 C 10.855469 7.777344 11.015625 7.953125 11.285156 7.6875 C 11.429688 7.546875 11.214844 7.011719 10.460938 5.699219 C 9.902344 4.703125 9.363281 3.871094 9.289062 3.816406 C 9.21875 3.765625 9.078125 3.835938 8.96875 3.957031 Z M 8.96875 3.957031 "/>
<path style=" stroke:none;fill-rule:nonzero;fill:rgb(67.45098%,39.607843%,90.588235%);fill-opacity:1;" d="M 10.191406 4.03125 C 10.191406 4.226562 12.167969 7.617188 12.347656 7.722656 C 12.453125 7.792969 12.578125 7.722656 12.632812 7.582031 C 12.777344 7.191406 10.890625 3.921875 10.515625 3.90625 C 10.335938 3.90625 10.191406 3.957031 10.191406 4.03125 Z M 10.191406 4.03125 "/>
<path style=" stroke:none;fill-rule:nonzero;fill:rgb(67.45098%,39.607843%,90.588235%);fill-opacity:1;" d="M 11.628906 4.066406 C 11.628906 4.421875 13.660156 7.632812 13.890625 7.632812 C 14.035156 7.632812 14.144531 7.582031 14.144531 7.527344 C 14.144531 7.207031 12.078125 3.90625 11.878906 3.90625 C 11.734375 3.90625 11.628906 3.976562 11.628906 4.066406 Z M 11.628906 4.066406 "/>
<path style=" stroke:none;fill-rule:nonzero;fill:rgb(67.45098%,39.607843%,90.588235%);fill-opacity:1;" d="M 13.066406 4.046875 C 13.066406 4.347656 14.96875 7.527344 15.203125 7.597656 C 15.582031 7.722656 15.382812 7.191406 14.449219 5.609375 C 13.605469 4.171875 13.066406 3.570312 13.066406 4.046875 Z M 13.066406 4.046875 "/>
<path style=" stroke:none;fill-rule:nonzero;fill:rgb(67.45098%,39.607843%,90.588235%);fill-opacity:1;" d="M 4.511719 8.398438 C 4.476562 8.523438 5.210938 10.011719 6.164062 11.71875 C 7.117188 13.421875 8.804688 16.457031 9.921875 18.464844 C 19.878906 36.394531 23.742188 43.265625 23.9375 43.480469 C 24.066406 43.601562 24.246094 43.675781 24.351562 43.601562 C 24.441406 43.550781 25.539062 41.683594 26.78125 39.464844 C 39.449219 16.742188 43.925781 8.609375 43.851562 8.398438 C 43.710938 8.058594 4.65625 8.058594 4.511719 8.398438 Z M 40.402344 13.101562 C 39.164062 15.339844 35.03125 22.761719 31.21875 29.613281 C 27.40625 36.464844 24.261719 42.074219 24.210938 42.074219 C 24.117188 42.074219 19.84375 34.441406 8.699219 14.378906 C 7.421875 12.089844 6.21875 9.941406 6.019531 9.621094 L 5.660156 9.054688 L 42.6875 9.054688 Z M 40.402344 13.101562 "/>
<path style=" stroke:none;fill-rule:nonzero;fill:rgb(67.45098%,39.607843%,90.588235%);fill-opacity:1;" d="M 8.210938 10.652344 C 8.210938 10.9375 12.023438 17.753906 12.1875 17.753906 C 12.632812 17.753906 12.382812 17.113281 10.890625 14.433594 C 9.992188 12.800781 9.164062 11.34375 9.058594 11.21875 C 8.929688 11.058594 9.796875 11.007812 13.316406 11.007812 C 17.128906 11.007812 17.738281 10.972656 17.738281 10.742188 C 17.738281 10.511719 17.09375 10.472656 12.976562 10.472656 C 9.902344 10.472656 8.210938 10.546875 8.210938 10.652344 Z M 8.210938 10.652344 "/>
<path style=" stroke:none;fill-rule:nonzero;fill:rgb(67.45098%,39.607843%,90.588235%);fill-opacity:1;" d="M 23.976562 10.597656 C 23.902344 10.652344 23.851562 10.777344 23.851562 10.863281 C 23.851562 10.9375 27.535156 11.007812 32.027344 11.007812 C 39.179688 11.007812 40.203125 10.972656 40.203125 10.742188 C 40.203125 10.511719 39.199219 10.472656 32.152344 10.472656 C 27.714844 10.472656 24.03125 10.527344 23.976562 10.597656 Z M 23.976562 10.597656 "/>
<path style=" stroke:none;fill-rule:nonzero;fill:rgb(67.45098%,39.607843%,90.588235%);fill-opacity:1;" d="M 24.515625 12.886719 C 24.261719 13.15625 24.40625 13.492188 24.765625 13.492188 C 25.015625 13.492188 25.109375 13.402344 25.070312 13.191406 C 25.015625 12.871094 24.710938 12.710938 24.515625 12.886719 Z M 24.515625 12.886719 "/>
<path style=" stroke:none;fill-rule:nonzero;fill:rgb(67.45098%,39.607843%,90.588235%);fill-opacity:1;" d="M 13.605469 13.316406 C 13.605469 13.546875 13.730469 13.671875 13.964844 13.671875 C 14.199219 13.671875 14.324219 13.546875 14.324219 13.316406 C 14.324219 13.085938 14.199219 12.960938 13.964844 12.960938 C 13.730469 12.960938 13.605469 13.085938 13.605469 13.316406 Z M 13.605469 13.316406 "/>
<path style=" stroke:none;fill-rule:nonzero;fill:rgb(67.45098%,39.607843%,90.588235%);fill-opacity:1;" d="M 15.761719 13.332031 C 15.761719 13.777344 16.355469 13.722656 16.445312 13.261719 C 16.480469 13.050781 16.390625 12.960938 16.140625 12.960938 C 15.867188 12.960938 15.761719 13.066406 15.761719 13.332031 Z M 15.761719 13.332031 "/>
<path style=" stroke:none;fill-rule:nonzero;fill:rgb(67.45098%,39.607843%,90.588235%);fill-opacity:1;" d="M 17.953125 13.261719 C 17.992188 13.441406 18.132812 13.582031 18.277344 13.582031 C 18.421875 13.582031 18.566406 13.441406 18.601562 13.261719 C 18.636719 13.050781 18.546875 12.960938 18.277344 12.960938 C 18.007812 12.960938 17.917969 13.050781 17.953125 13.261719 Z M 17.953125 13.261719 "/>
<path style=" stroke:none;fill-rule:nonzero;fill:rgb(67.45098%,39.607843%,90.588235%);fill-opacity:1;" d="M 20.109375 13.261719 C 20.148438 13.441406 20.289062 13.582031 20.433594 13.582031 C 20.578125 13.582031 20.722656 13.441406 20.757812 13.261719 C 20.792969 13.050781 20.703125 12.960938 20.433594 12.960938 C 20.164062 12.960938 20.074219 13.050781 20.109375 13.261719 Z M 20.109375 13.261719 "/>
<path style=" stroke:none;fill-rule:nonzero;fill:rgb(67.45098%,39.607843%,90.588235%);fill-opacity:1;" d="M 22.234375 13.226562 C 22.234375 13.367188 22.394531 13.492188 22.59375 13.492188 C 22.789062 13.492188 22.953125 13.367188 22.953125 13.226562 C 22.953125 13.085938 22.789062 12.960938 22.59375 12.960938 C 22.394531 12.960938 22.234375 13.085938 22.234375 13.226562 Z M 22.234375 13.226562 "/>
<path style=" stroke:none;fill-rule:nonzero;fill:rgb(67.45098%,39.607843%,90.588235%);fill-opacity:1;" d="M 15.347656 17.007812 C 15.203125 17.222656 23.921875 32.753906 24.191406 32.753906 C 24.316406 32.753906 24.910156 31.867188 25.523438 30.804688 C 30.625 21.710938 33.140625 17.113281 33.070312 16.988281 C 32.960938 16.832031 15.457031 16.832031 15.347656 17.007812 Z M 24.335938 17.46875 C 24.335938 17.574219 24.371094 17.789062 24.40625 17.929688 C 24.460938 18.089844 24.316406 18.214844 24.082031 18.25 C 23.777344 18.304688 23.707031 18.25 23.777344 18.039062 C 23.832031 17.878906 23.976562 17.804688 24.101562 17.878906 C 24.210938 17.929688 24.210938 17.894531 24.082031 17.738281 C 23.777344 17.433594 23.796875 17.273438 24.082031 17.273438 C 24.226562 17.273438 24.335938 17.363281 24.335938 17.46875 Z M 23.632812 17.539062 C 23.382812 18.109375 19.96875 24.125 19.894531 24.125 C 19.824219 24.125 16.425781 18.125 16.15625 17.523438 C 16.121094 17.453125 17.8125 17.398438 19.894531 17.398438 C 21.980469 17.398438 23.671875 17.453125 23.632812 17.539062 Z M 31.488281 18.855469 C 31.039062 19.671875 30.210938 21.179688 29.636719 22.226562 C 29.078125 23.273438 28.578125 24.144531 28.523438 24.144531 C 28.453125 24.144531 24.984375 18.039062 24.785156 17.539062 C 24.75 17.46875 26.421875 17.398438 28.503906 17.398438 L 32.296875 17.398438 Z M 24.835938 18.464844 C 24.890625 18.570312 24.820312 18.585938 24.675781 18.535156 C 24.515625 18.480469 24.390625 18.5 24.390625 18.570312 C 24.40625 18.960938 27.265625 23.878906 27.480469 23.878906 C 27.804688 23.878906 28.59375 24.605469 28.398438 24.710938 C 28.324219 24.75 27.984375 24.695312 27.640625 24.589844 C 27.246094 24.445312 27.121094 24.339844 27.28125 24.269531 C 27.425781 24.214844 26.007812 24.179688 24.117188 24.179688 C 22.140625 24.179688 20.902344 24.234375 21.152344 24.320312 C 21.40625 24.394531 21.476562 24.484375 21.332031 24.5 C 21.046875 24.535156 20.667969 24.605469 20.273438 24.695312 C 20.148438 24.730469 19.984375 24.660156 19.949219 24.535156 C 19.894531 24.429688 19.984375 24.320312 20.148438 24.320312 C 20.308594 24.320312 20.433594 24.234375 20.433594 24.144531 C 20.433594 24.039062 20.578125 23.96875 20.757812 23.96875 C 20.992188 23.96875 21.515625 23.203125 22.59375 21.25 C 24.226562 18.304688 24.515625 17.949219 24.835938 18.464844 Z M 27.984375 25.121094 C 27.984375 25.175781 27.425781 26.203125 26.761719 27.394531 C 26.078125 28.582031 25.214844 30.109375 24.855469 30.765625 L 24.171875 31.972656 L 23.8125 31.300781 C 23.023438 29.808594 21.0625 26.328125 20.667969 25.691406 L 20.253906 25.03125 L 24.117188 25.03125 C 26.242188 25.03125 27.984375 25.070312 27.984375 25.121094 Z M 27.984375 25.121094 "/>
<path style=" stroke:none;fill-rule:nonzero;fill:rgb(67.45098%,39.607843%,90.588235%);fill-opacity:1;" d="M 16.121094 24.800781 C 16.140625 25.28125 23.921875 39.148438 24.191406 39.148438 C 24.441406 39.148438 32.296875 25.191406 32.296875 24.75 C 32.296875 24.589844 32.1875 24.5 32.082031 24.535156 C 31.867188 24.605469 30.789062 26.488281 25.933594 35.207031 L 24.171875 38.367188 L 23.578125 37.246094 C 21.546875 33.429688 16.515625 24.605469 16.335938 24.535156 C 16.210938 24.5 16.121094 24.625 16.121094 24.800781 Z M 16.121094 24.800781 "/>
<path style=" stroke:none;fill-rule:nonzero;fill:rgb(67.45098%,39.607843%,90.588235%);fill-opacity:1;" d="M 41.375 17.167969 C 38.425781 22.140625 35.875 26.382812 35.695312 26.648438 C 35.476562 26.949219 35.425781 27.179688 35.550781 27.359375 C 35.785156 27.695312 35.910156 27.535156 37.851562 24.234375 C 38.714844 22.761719 41.175781 18.640625 43.3125 15.054688 C 45.472656 11.46875 47.214844 8.449219 47.214844 8.34375 C 47.214844 7.546875 46.027344 9.339844 41.375 17.167969 Z M 41.375 17.167969 "/>
<path style=" stroke:none;fill-rule:nonzero;fill:rgb(67.45098%,39.607843%,90.588235%);fill-opacity:1;" d="M 43.171875 17.824219 C 42.773438 18.410156 42.992188 18.785156 43.460938 18.359375 C 43.835938 18.019531 43.90625 17.664062 43.621094 17.488281 C 43.53125 17.433594 43.332031 17.59375 43.171875 17.824219 Z M 43.171875 17.824219 "/>
<path style=" stroke:none;fill-rule:nonzero;fill:rgb(67.45098%,39.607843%,90.588235%);fill-opacity:1;" d="M 41.984375 19.722656 C 41.695312 20.273438 42.074219 20.613281 42.453125 20.132812 C 42.59375 19.957031 42.722656 19.6875 42.722656 19.566406 C 42.722656 19.210938 42.21875 19.316406 41.984375 19.722656 Z M 41.984375 19.722656 "/>
<path style=" stroke:none;fill-rule:nonzero;fill:rgb(67.45098%,39.607843%,90.588235%);fill-opacity:1;" d="M 40.921875 21.464844 C 40.671875 21.945312 40.691406 22.191406 41.015625 22.191406 C 41.320312 22.191406 41.714844 21.554688 41.554688 21.304688 C 41.375 21.019531 41.140625 21.089844 40.921875 21.464844 Z M 40.921875 21.464844 "/>
<path style=" stroke:none;fill-rule:nonzero;fill:rgb(67.45098%,39.607843%,90.588235%);fill-opacity:1;" d="M 39.84375 23.347656 C 39.664062 23.664062 39.648438 23.84375 39.792969 23.984375 C 40.023438 24.214844 40.671875 23.382812 40.476562 23.078125 C 40.296875 22.796875 40.097656 22.867188 39.84375 23.347656 Z M 39.84375 23.347656 "/>
<path style=" stroke:none;fill-rule:nonzero;fill:rgb(67.45098%,39.607843%,90.588235%);fill-opacity:1;" d="M 38.765625 25.121094 C 38.640625 25.265625 38.605469 25.53125 38.679688 25.691406 C 38.785156 25.972656 38.820312 25.972656 39.144531 25.582031 C 39.324219 25.351562 39.484375 25.105469 39.484375 25.015625 C 39.484375 24.765625 39.019531 24.835938 38.765625 25.121094 Z M 38.765625 25.121094 "/>
<path style=" stroke:none;fill-rule:nonzero;fill:rgb(67.45098%,39.607843%,90.588235%);fill-opacity:1;" d="M 11.449219 25.796875 C 11.449219 26.132812 23.921875 48.519531 24.15625 48.589844 C 24.316406 48.644531 29.027344 40.460938 29.0625 40.035156 C 29.078125 39.945312 29.007812 39.839844 28.917969 39.804688 C 28.828125 39.785156 27.714844 41.597656 26.457031 43.851562 L 24.171875 47.953125 L 23.722656 47.101562 C 23.472656 46.640625 21.027344 42.253906 18.3125 37.371094 C 15.601562 32.488281 13.011719 27.835938 12.578125 27.019531 C 11.824219 25.652344 11.449219 25.246094 11.449219 25.796875 Z M 11.449219 25.796875 "/>
<path style=" stroke:none;fill-rule:nonzero;fill:rgb(67.45098%,39.607843%,90.588235%);fill-opacity:1;" d="M 37.6875 26.96875 C 37.4375 27.429688 37.453125 27.695312 37.742188 27.695312 C 38.03125 27.695312 38.460938 27.019531 38.320312 26.808594 C 38.140625 26.523438 37.90625 26.59375 37.6875 26.96875 Z M 37.6875 26.96875 "/>
<path style=" stroke:none;fill-rule:nonzero;fill:rgb(67.45098%,39.607843%,90.588235%);fill-opacity:1;" d="M 36.609375 28.742188 C 36.359375 29.203125 36.375 29.472656 36.664062 29.472656 C 36.953125 29.472656 37.382812 28.796875 37.242188 28.582031 C 37.0625 28.300781 36.828125 28.371094 36.609375 28.742188 Z M 36.609375 28.742188 "/>
<path style=" stroke:none;fill-rule:nonzero;fill:rgb(67.45098%,39.607843%,90.588235%);fill-opacity:1;" d="M 35.441406 30.730469 C 35.246094 31.300781 35.621094 31.53125 35.945312 31.050781 C 36.109375 30.835938 36.195312 30.589844 36.144531 30.5 C 35.964844 30.234375 35.550781 30.359375 35.441406 30.730469 Z M 35.441406 30.730469 "/>
<path style=" stroke:none;fill-rule:nonzero;fill:rgb(67.45098%,39.607843%,90.588235%);fill-opacity:1;" d="M 34.492188 32.347656 C 34.238281 32.597656 34.203125 33.199219 34.4375 33.199219 C 34.542969 33.199219 34.742188 33.023438 34.886719 32.808594 C 35.28125 32.257812 34.957031 31.886719 34.492188 32.347656 Z M 34.492188 32.347656 "/>
<path style=" stroke:none;fill-rule:nonzero;fill:rgb(67.45098%,39.607843%,90.588235%);fill-opacity:1;" d="M 33.304688 34.300781 C 33.015625 34.707031 33.070312 34.972656 33.445312 34.972656 C 33.699219 34.972656 34.132812 34.175781 33.96875 34.015625 C 33.769531 33.820312 33.574219 33.910156 33.304688 34.300781 Z M 33.304688 34.300781 "/>
<path style=" stroke:none;fill-rule:nonzero;fill:rgb(67.45098%,39.607843%,90.588235%);fill-opacity:1;" d="M 32.242188 36.113281 C 31.992188 36.484375 31.992188 36.570312 32.207031 36.75 C 32.421875 36.929688 32.511719 36.875 32.675781 36.5 C 33 35.828125 32.640625 35.507812 32.242188 36.113281 Z M 32.242188 36.113281 "/>
</g>
</svg>
